<svg width="320" height="139" viewBox="0 0 320 139" fill="none" xmlns="http://www.w3.org/2000/svg">
<path d="M60.8 5.168L72.704 0.559998V91.44L60.8 95.792V58.544H24.832V91.44L12.8 95.792V58.544H2.432L6.144 50.992H12.8V5.168L24.832 0.559998V50.992H60.8V5.168ZM112.09 45.136C115.546 45.136 118.426 46.064 120.73 47.92C123.034 49.776 124.186 52.528 124.186 56.176C124.186 59.12 122.586 62.416 119.386 66.064C116.25 69.648 112.538 72.944 108.25 75.952C104.026 78.96 100.41 81.072 97.402 82.288C99.002 84.848 100.826 86.64 102.874 87.664C104.922 88.624 107.322 89.104 110.074 89.104C113.146 89.104 116.186 88.336 119.194 86.8C122.266 85.2 124.794 83.152 126.778 80.656L127.93 82.672C124.794 86.704 121.466 89.808 117.946 91.984C114.426 94.096 110.106 95.152 104.986 95.152C101.082 95.152 97.594 94.192 94.522 92.272C91.45 90.352 89.05 87.792 87.322 84.592C85.594 81.328 84.73 77.808 84.73 74.032C84.73 69.296 86.01 64.688 88.57 60.208C91.13 55.728 94.522 52.112 98.746 49.36C102.97 46.544 107.418 45.136 112.09 45.136ZM107.098 51.184C104.282 51.184 101.754 52.08 99.514 53.872C97.338 55.664 95.61 57.968 94.33 60.784C93.114 63.6 92.506 66.512 92.506 69.52C92.506 73.488 93.434 76.88 95.29 79.696C97.978 78.48 100.89 76.656 104.026 74.224C107.162 71.728 109.818 69.04 111.994 66.16C114.17 63.28 115.258 60.656 115.258 58.288C115.258 53.552 112.538 51.184 107.098 51.184ZM157.734 46C160.87 46 163.814 46.672 166.566 48.016C169.382 49.36 171.43 51.408 172.71 54.16L165.798 57.904C164.774 56.432 163.366 55.12 161.574 53.968C159.782 52.752 157.862 52.144 155.814 52.144C152.55 52.144 149.702 53.008 147.27 54.736C144.838 56.4 142.982 58.672 141.702 61.552C140.422 64.432 139.782 67.632 139.782 71.152C139.782 76.208 140.646 80.336 142.374 83.536C144.102 86.672 146.822 88.24 150.534 88.24C155.782 88.24 159.398 86.128 161.382 81.904C163.366 77.68 164.358 73.072 164.358 68.08V63.76L172.806 60.208V85.456C172.806 86.288 173.03 87.088 173.478 87.856C173.926 88.624 174.598 89.008 175.494 89.008C177.35 89.008 179.046 87.728 180.582 85.168L182.022 86.704C181.254 88.88 179.91 90.736 177.99 92.272C176.07 93.744 174.15 94.48 172.23 94.48C169.478 94.48 167.43 93.456 166.086 91.408C164.806 89.36 164.166 86.64 164.166 83.248H163.974C162.374 86.64 160.198 89.488 157.446 91.792C154.758 94.032 151.91 95.152 148.902 95.152C143.462 95.152 139.334 93.296 136.518 89.584C133.766 85.808 132.39 80.784 132.39 74.512C132.39 69.52 133.51 64.848 135.75 60.496C137.99 56.08 141.03 52.56 144.87 49.936C148.774 47.312 153.062 46 157.734 46ZM197.497 85.936C197.497 86.704 197.721 87.44 198.169 88.144C198.617 88.848 199.385 89.2 200.473 89.2C201.369 89.2 202.297 88.816 203.257 88.048C204.281 87.216 205.049 86.352 205.561 85.456L207.193 86.896C206.105 89.008 204.601 90.8 202.681 92.272C200.761 93.744 198.841 94.48 196.921 94.48C191.545 94.48 188.857 91.248 188.857 84.784V8.944L197.497 5.296V85.936Z" fill="#167C7C"/>
<path d="M279.288 130.648C275.192 130.648 272.856 127.896 272.28 122.392C272.088 120.536 271.992 118.68 271.992 116.824C271.992 112.728 272.568 108.376 273.72 103.768C274.936 99.16 276.504 94.424 278.424 89.56C280.408 84.696 282.616 79.8 285.048 74.872C287.544 69.944 290.072 65.144 292.632 60.472C293.08 59.768 293.304 59.16 293.304 58.648C293.304 58.2 293.144 57.976 292.824 57.976C291.608 57.976 288.632 60.056 283.896 64.216C281.336 66.456 278.936 68.856 276.696 71.416C274.456 73.912 272.44 76.28 270.648 78.52C268.216 81.656 266.136 84.344 264.408 86.584C262.744 88.76 261.464 90.552 260.568 91.96C259.416 93.688 258.008 95.96 256.344 98.776C254.744 101.528 252.856 104.792 250.68 108.568C250.616 108.632 249.752 110.616 248.088 114.52C247 117.144 246.104 118.456 245.4 118.456C244.312 118.328 243.32 117.88 242.424 117.112C241.592 116.408 241.24 115.608 241.368 114.712C241.688 111.96 242.552 108.408 243.96 104.056C245.368 99.704 247.352 94.52 249.912 88.504C254.712 76.984 257.112 70.648 257.112 69.496C257.112 68.664 256.472 68.248 255.192 68.248C250.52 68.248 242.808 74.616 232.056 87.352C221.368 100.088 215.544 109.368 214.584 115.192C214.456 116.088 213.944 116.824 213.048 117.4C212.152 117.976 211.224 118.264 210.264 118.264C209.24 118.264 208.728 117.912 208.728 117.208C208.728 113.176 211.864 104.632 218.136 91.576C222.808 81.976 225.56 76.184 226.392 74.2C227.672 71.064 228.696 68.216 229.464 65.656C230.232 63.032 230.616 60.92 230.616 59.32C230.616 57.464 230.168 56.28 229.272 55.768C228.376 55.256 226.904 55 224.856 55C218.52 55 211.096 56.984 202.584 60.952C200.024 62.168 197.624 63.576 195.384 65.176C193.144 66.776 191.032 68.6 189.048 70.648C184.824 75.064 182.712 79.064 182.712 82.648C182.712 83.864 182.872 84.984 183.192 86.008C183.512 86.968 184.152 87.832 185.112 88.6C185.88 89.24 187 89.752 188.472 90.136C190.008 90.456 191.672 90.616 193.464 90.616C196.28 90.616 199.16 90.232 202.104 89.464C202.232 89.4 202.424 89.368 202.68 89.368C202.936 89.368 203.064 89.464 203.064 89.656C203.064 90.168 202.552 90.712 201.528 91.288C200.504 91.8 199.192 92.248 197.592 92.632C196.056 93.016 194.424 93.208 192.696 93.208C189.432 93.208 186.36 92.664 183.48 91.576C180.152 90.36 178.488 87.864 178.488 84.088C178.488 81.208 179.416 78.168 181.272 74.968C182.936 72.152 185.72 69.208 189.624 66.136C191.864 64.408 194.552 62.712 197.688 61.048C200.888 59.32 204.248 57.784 207.768 56.44C211.352 55.096 214.872 54.04 218.328 53.272C221.848 52.44 225.048 52.024 227.928 52.024C233.432 52.024 236.184 54.072 236.184 58.168C236.184 60.216 235.384 63.32 233.784 67.48C232.184 71.64 229.976 76.664 227.16 82.552C225.176 86.712 223.256 90.84 221.4 94.936C219.544 98.968 217.592 103.064 215.544 107.224C215.608 107.352 218.936 102.488 225.528 92.632C227.192 90.2 229.176 87.608 231.48 84.856C233.848 82.04 236.6 79.128 239.736 76.12C245.432 70.616 249.784 67.032 252.792 65.368C254.52 64.408 256.248 63.928 257.976 63.928C260.6 63.928 261.912 65.272 261.912 67.96C261.912 68.92 261.784 69.88 261.528 70.84C259.928 74.744 258.04 79.544 255.864 85.24C253.688 90.872 251.192 97.432 248.376 104.92C248.248 105.304 248.184 105.56 248.184 105.688C248.184 105.752 248.216 105.784 248.28 105.784C248.6 105.784 251.096 102.104 255.768 94.744C258.392 90.52 260.632 87.032 262.488 84.28C264.408 81.464 265.912 79.416 267 78.136C275.896 67.128 283.16 59.544 288.792 55.384C291.096 53.656 293.944 52.792 297.336 52.792C300.216 52.792 301.656 53.688 301.656 55.48C301.656 56.824 300.824 58.52 299.16 60.568C293.08 68.248 287.672 78.616 282.936 91.672C280.76 97.752 279.032 103 277.752 107.416C276.536 111.768 275.928 115.8 275.928 119.512C275.928 122.84 276.248 125.08 276.888 126.232C277.592 127.384 278.584 127.96 279.864 127.96C280.76 127.96 281.72 127.8 282.744 127.48C283.832 127.224 285.016 126.872 286.296 126.424C286.552 126.36 286.744 126.296 286.872 126.232C287.064 126.232 287.224 126.232 287.352 126.232C287.672 126.232 287.832 126.328 287.832 126.52C287.832 127.16 286.904 127.96 285.048 128.92C283.064 130.072 281.144 130.648 279.288 130.648ZM296.221 115.768C294.365 115.768 292.733 115.32 291.325 114.424C289.469 113.144 288.541 111.288 288.541 108.856C288.541 106.232 289.661 103.032 291.901 99.256C294.909 94.328 299.325 90.008 305.149 86.296C306.621 85.336 308.093 84.856 309.565 84.856C311.485 84.856 312.861 85.464 313.693 86.68C314.205 87.384 314.461 88.184 314.461 89.08C314.461 91.768 312.285 94.712 307.933 97.912C306.653 98.808 305.277 99.64 303.805 100.408C302.397 101.112 300.861 101.624 299.197 101.944L295.069 102.808C293.533 105.56 292.765 107.864 292.765 109.72C292.765 112.28 294.269 113.56 297.277 113.56C299.645 113.56 302.525 112.568 305.917 110.584C310.461 107.96 314.365 104.312 317.629 99.64C318.141 98.872 318.621 98.488 319.069 98.488C319.261 98.488 319.357 98.616 319.357 98.872C319.357 99.192 319.133 99.672 318.685 100.312C312.477 109.656 305.469 114.776 297.661 115.672C297.405 115.736 297.149 115.768 296.893 115.768C296.701 115.768 296.477 115.768 296.221 115.768ZM296.221 101.176C298.013 101.176 300.317 100.376 303.133 98.776C307.101 96.536 309.885 93.656 311.485 90.136C311.933 89.24 312.157 88.504 312.157 87.928C312.157 87.352 311.933 87.064 311.485 87.064C310.653 87.064 308.957 88.088 306.397 90.136C304.541 91.736 302.717 93.464 300.925 95.32C299.197 97.112 297.533 99.032 295.933 101.08C295.869 101.144 295.965 101.176 296.221 101.176Z" fill="#167C7C"/>
</svg>
